<?xml version="1.0" standalone="no"?>
<!DOCTYPE svg PUBLIC "-//W3C//DTD SVG 20010904//EN"
 "http://www.w3.org/TR/2001/REC-SVG-20010904/DTD/svg10.dtd">
<svg version="1.0" xmlns="http://www.w3.org/2000/svg"
 width="85.000000pt" height="85.000000pt" viewBox="0 0 85.000000 85.000000"
 preserveAspectRatio="xMidYMid meet">
<metadata>
Created by potrace 1.11, written by Peter Selinger 2001-2013
</metadata>
<g transform="translate(0.000000,85.000000) scale(0.100000,-0.100000)"
fill="#000000" stroke="none">
<path d="M337 843 c-9 -14 21 -39 31 -27 4 5 5 8 3 7 -2 -2 -9 5 -16 14 -7 10
-14 12 -18 6z"/>
<path d="M343 742 c-28 -43 -106 -157 -172 -255 -67 -97 -121 -179 -121 -181
0 -1 31 -24 69 -49 l70 -46 22 36 c18 29 20 37 8 44 -55 31 -55 31 -7 102 l44
66 138 -89 c75 -50 140 -90 143 -90 3 0 12 8 20 18 38 48 40 44 -107 142 -77
51 -140 94 -140 97 0 2 35 55 77 119 75 112 77 117 58 131 -47 35 -48 34 -102
-45z"/>
<path d="M292 768 c6 -16 38 -23 38 -9 0 6 -7 7 -17 4 -11 -4 -14 -3 -9 5 4 7
2 12 -4 12 -7 0 -10 -6 -8 -12z"/>
<path d="M425 653 c-39 -60 -64 -107 -59 -112 5 -5 69 -47 142 -95 l133 -86
-42 -61 c-24 -33 -47 -63 -52 -66 -4 -3 -70 36 -145 86 l-137 91 -18 -22 c-42
-54 -47 -47 136 -169 95 -63 177 -115 182 -116 6 -2 44 50 85 114 41 64 83
129 93 144 l18 28 -135 90 c-74 50 -137 94 -140 99 -8 13 24 54 38 49 7 -3 72
-44 145 -92 142 -92 135 -91 166 -35 13 25 12 27 -58 72 -40 25 -119 77 -177
115 l-106 70 -69 -104z"/>
<path d="M251 714 c-1 -18 26 -37 34 -24 3 5 0 10 -9 10 -8 0 -17 6 -19 13 -4
7 -6 8 -6 1z"/>
<path d="M207 653 c-3 -5 4 -15 16 -23 21 -12 21 -12 7 6 -8 10 -15 20 -16 22
-1 2 -4 -1 -7 -5z"/>
<path d="M130 531 c0 -13 26 -32 33 -24 8 7 -11 33 -24 33 -5 0 -9 -4 -9 -9z"/>
<path d="M85 471 c-3 -6 5 -15 17 -21 21 -10 21 -10 6 3 -10 8 -15 17 -11 20
3 4 4 7 0 7 -3 0 -8 -4 -12 -9z"/>
<path d="M40 402 c0 -18 19 -24 37 -13 10 6 13 11 6 11 -6 0 -18 3 -27 6 -9 3
-16 1 -16 -4z"/>
<path d="M240 224 c0 -14 -4 -23 -10 -19 -5 3 -10 -1 -10 -9 0 -9 7 -16 15
-16 14 0 20 17 16 47 -1 8 5 10 15 6 12 -4 15 -3 10 5 -13 22 -36 13 -36 -14z"/>
<path d="M284 195 c-16 -24 -14 -55 4 -55 12 0 44 59 37 70 -10 16 -24 11 -41
-15z m11 -23 c-15 -16 -16 -15 -4 12 7 15 15 23 17 16 3 -7 -3 -19 -13 -28z"/>
<path d="M337 158 c-29 -50 -4 -66 30 -20 19 26 20 29 4 39 -14 9 -20 5 -34
-19z m21 -13 c-6 -14 -13 -23 -15 -21 -5 5 15 46 22 46 3 0 -1 -11 -7 -25z"/>
<path d="M409 140 c-1 -8 -1 -19 0 -23 1 -5 -3 -6 -8 -3 -5 3 -14 -1 -21 -9
-10 -12 -9 -15 4 -15 10 0 14 -4 11 -10 -3 -5 -2 -10 2 -10 15 0 34 63 23 74
-7 7 -10 5 -11 -4z"/>
<path d="M452 100 c-6 -11 -9 -27 -6 -37 4 -14 4 -15 -4 -4 -6 8 -12 9 -16 3
-3 -5 2 -13 11 -16 11 -5 23 1 35 16 21 28 22 32 5 46 -9 8 -16 6 -25 -8z m28
-4 c0 -3 -4 -8 -10 -11 -5 -3 -10 -1 -10 4 0 6 5 11 10 11 6 0 10 -2 10 -4z"/>
<path d="M497 51 c-21 -35 -21 -37 -3 -44 10 -4 12 0 8 15 -3 14 -1 19 6 14 7
-4 12 -1 12 8 0 9 5 16 11 16 5 0 7 5 4 10 -10 16 -20 12 -38 -19z"/>
</g>
</svg>
